<?xml version="1.0" encoding="utf-8"?>
<!-- Generator: Adobe Illustrator 21.1.0, SVG Export Plug-In . SVG Version: 6.00 Build 0)  -->
<svg version="1.1" id="Layer_1" xmlns="http://www.w3.org/2000/svg" xmlns:xlink="http://www.w3.org/1999/xlink" x="0px" y="0px"
	 viewBox="0 0 192.8 160.6" style="enable-background:new 0 0 192.8 160.6;" xml:space="preserve">
<style type="text/css">
	.st0{fill:#FFFFFF;}
</style>
<g>
	<path class="st0" d="M192.8,120.8c0,22.5-23.4,39.7-52.7,39.7c-42.9,0-76.2-36.3-76.2-80.1c0-8.7,1.1-17.6,3.6-26.8
		c-15.9,24.2-37.4,52.9-53.3,52.9c-8.7,0-14.2-7-14.2-17.4C0,53.5,37,0,64.6,0c12.7,0,18.7,10.2,18.7,10.2c-2.5-1.1-5.1-1.5-7.9-1.5
		C46.5,8.7,8.9,68.2,8.9,93c0,4.2,1.5,8.1,5.1,8.1c13.8-0.2,52-54.2,63.1-71.8c1.7-2.5,3-5.7,4.9-8.5c4.9,1.7,7.2,4.7,7.2,8.5
		c0,1.9-0.6,4-1.7,6.2C81.6,46.9,77.3,64.1,77.3,82c0,21.5,6.4,43.5,23.6,57.3c13.6,11,28.2,15.3,41.8,15.3
		c28.7,0,47.2-17.8,47.2-34.8c0-8.1-3.8-14.7-6.4-18.9l1.3-0.6C188.6,104.5,192.8,111.5,192.8,120.8z"/>
</g>
</svg>
