<?xml version="1.0" encoding="utf-8"?>
<!-- Generator: Adobe Illustrator 21.1.0, SVG Export Plug-In . SVG Version: 6.00 Build 0)  -->
<svg version="1.1" id="Layer_1" xmlns="http://www.w3.org/2000/svg" xmlns:xlink="http://www.w3.org/1999/xlink" x="0px" y="0px"
	 viewBox="0 0 256 256" style="enable-background:new 0 0 256 256;" xml:space="preserve">
<style type="text/css">
	.st0{fill:#1AA5B7;}
</style>
<path class="st0" d="M0,49v158h76.3c7.1,0,55.8-1.4,55.8-45.9c0-27.8-19.1-37.2-28.8-40c7.1-3.4,21.3-11.4,21.3-32.8
	c0-11.9-1.7-39.2-50.4-39.2H0V49z M174,63.7v14.4h59V63.7H174z M34.7,76h32.6c3,0,23.7-1.7,23.7,18.1c0,16.9-14.9,18.7-21.1,18.7
	H34.7V76z M204.9,91.2c-44.6,0-53.9,38.7-53.9,55.5c0,49.8,40.8,55.5,53.9,55.5c35.3,0,45.3-22.8,49.4-35.5h-25.6
	c-1,3.3-8.5,13.9-22.7,13.9c-23.8,0-25.9-18.6-25.9-26.9h75.8C257.4,124.8,244.8,91.2,204.9,91.2z M204.1,112.8
	c7.1,0,12.8,2.1,16.3,5.9c3.4,3.8,6,9.4,6.7,16.8h-47c0.1-2,0.6-4.4,1.3-6.9c0.7-2.6,1.9-5.1,3.7-7.5c1.9-2.3,4.5-4.3,7.5-5.9
	C195.7,113.6,199.5,112.8,204.1,112.8z M34.7,136.5h37.6c7.5,0,25.1,1.2,25.1,22.7c0,20.8-22.2,20.8-25.6,20.8H34.7V136.5z"/>
</svg>
