<?xml version="1.0" encoding="utf-8"?>
<!-- Generator: Adobe Illustrator 21.1.0, SVG Export Plug-In . SVG Version: 6.00 Build 0)  -->
<svg version="1.1" id="Layer_1" xmlns="http://www.w3.org/2000/svg" xmlns:xlink="http://www.w3.org/1999/xlink" x="0px" y="0px"
	 viewBox="0 0 256 256" style="enable-background:new 0 0 256 256;" xml:space="preserve">
<style type="text/css">
	.st0{fill:#FF4C66;}
</style>
<g>
	<path class="st0" d="M195.3,61.2c-3.3-3.3-6.7-5.6-11.1-7.2c-3.3-1.1-8.3-2.8-17.8-3.3c-10-0.6-12.8-0.6-38.4-0.6s-28.4,0-37.8,0
		c-9.5,0.6-14.5,2.2-17.8,3.3c-4.5,1.7-7.8,3.9-11.1,7.2c-3.3,3.3-5.6,6.7-7.2,11.1C53,75,51.3,80,50.8,89.5
		c-0.6,10-0.6,12.8-0.6,38.4s0,28.4,0,37.8c0.6,9.5,2.2,14.5,3.3,17.8c1.7,4.5,3.9,7.8,7.2,11.1s6.7,5.6,11.1,7.2
		c3.3,1.1,8.3,2.8,17.8,3.3c10,0.6,12.8,0.6,38.4,0.6s28.4,0,37.8,0c9.5-0.6,14.5-2.2,17.8-3.3c4.5-1.7,7.8-3.9,11.1-7.2
		s5.6-6.7,7.2-11.1c1.1-3.3,2.8-8.3,3.3-17.8c0.6-10,0.6-12.8,0.6-38.4s0-28.4,0-37.8c-0.6-9.5-2.2-14.5-3.3-17.8
		C200.9,67.9,198.7,64.6,195.3,61.2z M128,178.1c-27.8,0-50.1-22.3-50.1-50.1s22.3-50.1,50.1-50.1s50.1,22.3,50.1,50.1
		S155.8,178.1,128,178.1z M178.1,89C172,89,167,84,167,77.9s5-11.1,11.1-11.1s11.1,5,11.1,11.1C189.2,84.1,184.2,89,178.1,89z"/>
	<path class="st0" d="M128,94.6c-18.4,0-33.4,15-33.4,33.4s15,33.4,33.4,33.4s33.4-15,33.4-33.4S146.4,94.6,128,94.6z"/>
	<path class="st0" d="M200.3,0H55.7C25,0,0,25,0,55.7v144.7C0,231,25,256,55.7,256h144.7c30.6,0,55.7-25,55.7-55.7V55.7
		C256,25,231,0,200.3,0z M222.1,167c-0.6,10-2.2,16.7-4.5,22.8c-2.8,6.1-6.1,11.7-11.1,16.7c-5,5.6-10.6,8.9-16.7,11.1
		c-6.1,2.2-12.8,3.9-22.8,4.5s-13.4,0.6-39,0.6s-28.9,0-39-0.6c-10-0.6-16.7-2.2-22.8-4.5c-6.1-2.8-11.7-6.1-16.7-11.1
		c-5.6-5-8.9-10.6-11.1-16.7c-2.2-6.1-3.9-12.8-4.5-22.8s-0.6-13.4-0.6-39s0-28.9,0.6-39c0.6-10,2.2-16.7,4.5-22.8
		c2.8-6.1,6.1-11.1,11.1-16.7s10.6-8.9,16.7-11.1c6.1-2.2,12.8-3.9,22.8-4.5s13.4-0.6,39-0.6s28.9,0,39,0.6
		c10,0.6,16.7,2.2,22.8,4.5c6.1,2.8,11.1,6.1,16.7,11.1s8.9,10.6,11.1,16.7c2.2,6.1,3.9,12.8,4.5,22.8s0.6,13.4,0.6,39
		C222.6,153.6,222.6,156.9,222.1,167z"/>
</g>
</svg>
